<svg width="395.1090942382812px" height="129.44000549316405px" xmlns="http://www.w3.org/2000/svg" viewBox="52.44545288085939 10.279997253417974 395.1090942382812 129.44000549316405" style="background: rgba(0, 0, 0, 0);" preserveAspectRatio="xMidYMid"><defs><filter id="editing-extrusion" x="-100%" y="-100%" width="300%" height="300%"><feFlood result="color1" flood-color="#444"></feFlood><feConvolveMatrix order="8,8" divisor="1" kernelMatrix="1 0 0 0 0 0 0 0 0 1 0 0 0 0 0 0 0 0 1 0 0 0 0 0 0 0 0 1 0 0 0 0 0 0 0 0 1 0 0 0 0 0 0 0 0 1 0 0 0 0 0 0 0 0 1 0 0 0 0 0 0 0 0 1" in="SourceAlpha" result="extrude"></feConvolveMatrix><feComposite in="color1" in2="extrude" result="comp-extrude" operator="in"></feComposite><feOffset dx="4" dy="4" in="comp-extrude" result="offset-extrude"></feOffset><feMerge><feMergeNode in="offset-extrude"></feMergeNode><feMergeNode in="SourceGraphic"></feMergeNode></feMerge></filter></defs><g filter="url(#editing-extrusion)"><g transform="translate(114.59903198480606, 102.26499938964844)"><path d="M60.54-18.30L60.54-18.30L66.75-18.43L66.75-18.43Q69.06-18.43 69.06-18.11L69.06-18.11L69.06-18.11Q69.06-17.28 59.71-16.64L59.71-16.64L59.71-16.64Q53.76-4.99 53.76-0.77L53.76-0.77L53.76-0.77Q53.76 2.18 55.62 2.18L55.62 2.18L55.62 2.18Q56.32 2.18 57.38 1.31L57.38 1.31L57.38 1.31Q58.43 0.45 58.66 0.45L58.66 0.45L58.66 0.45Q58.88 0.45 58.88 0.77L58.88 0.77L58.88 0.77Q58.56 1.92 56.93 2.69L56.93 2.69L56.93 2.69Q55.30 3.46 54.18 3.46L54.18 3.46L54.18 3.46Q53.06 3.46 52.42 3.33L52.42 3.33L52.42 3.33Q50.88 2.75 50.88-0.38L50.88-0.38L50.88-0.38Q50.88-6.85 55.81-16.83L55.81-16.83L48.13-16.64L48.13-16.64Q39.55-8.26 30.91-1.92L30.91-1.92L30.91-1.92Q17.98 7.49 10.69 7.49L10.69 7.49L10.69 7.49Q10.24 7.49 9.79 7.42L9.79 7.42L9.79 7.42Q-0.06 6.59-0.06-2.69L-0.06-2.69L-0.06-2.69Q-0.06-8.19 3.39-14.34L3.39-14.34L3.39-14.34Q8-22.53 16-28.32L16-28.32L16-28.32Q24-34.11 30.34-34.11L30.34-34.11L30.34-34.11Q36.67-34.11 36.67-29.44L36.67-29.44L36.67-29.44Q36.67-26.30 34.75-22.46L34.75-22.46L34.75-22.46Q32.83-18.62 30.85-17.60L30.85-17.60L30.85-17.60Q30.66-17.54 30.43-17.54L30.43-17.54L30.43-17.54Q30.21-17.54 30.21-17.66L30.21-17.66L32.32-21.12L32.32-21.12Q34.50-24.51 34.50-27.07L34.50-27.07L34.50-27.07Q34.50-29.63 33.38-31.20L33.38-31.20L33.38-31.20Q32.26-32.77 29.82-32.77L29.82-32.77L29.82-32.77Q24.83-32.77 17.89-27.20L17.89-27.20L17.89-27.20Q10.94-21.63 7.33-13.50L7.33-13.50L7.33-13.50Q3.71-5.38 3.71-0.83L3.71-0.83L3.71-0.83Q3.71 6.02 10.69 6.02L10.69 6.02L10.69 6.02Q17.34 6.02 28.74-2.56L28.74-2.56L28.74-2.56Q33.79-6.34 45.18-16.83L45.18-16.83L45.18-16.83Q42.94-16.70 41.02-16.38L41.02-16.38L41.02-16.38Q36.93-15.62 37.18-16.64L37.18-16.64L37.18-16.64Q37.44-19.01 39.62-19.01L39.62-19.01L39.62-19.01Q43.84-18.50 46.72-18.50L46.72-18.50L46.72-18.50Q52.22-23.55 63.17-35.07L63.17-35.07L63.17-35.07Q70.53-42.82 72.13-42.82L72.13-42.82L72.13-42.82Q72.83-42.82 72.83-41.73L72.83-41.73L72.83-41.73Q72.83-40.64 72.26-38.34L72.26-38.34L72.26-38.34Q71.68-36.03 70.98-35.52L70.98-35.52L70.98-35.52Q69.50-34.50 68.22-32.74L68.22-32.74L68.22-32.74Q66.94-30.98 64.58-26.14L64.58-26.14L64.58-26.14Q62.21-21.31 60.54-18.30ZM65.66-33.92L65.66-33.92L49.28-18.56L53.06-18.56L53.06-18.56Q54.40-18.50 56.38-18.50L56.38-18.50L56.38-18.50Q58.24-22.14 65.66-33.92ZM67.78-3.20L67.78-3.20L67.78-3.20Q67.78-1.28 69.89-1.28L69.89-1.28L69.89-1.28Q72-1.28 75.33-3.52L75.33-3.52L75.33-3.52Q78.66-5.76 81.79-9.60L81.79-9.60L81.79-9.60Q82.56-10.62 83.01-10.62L83.01-10.62L83.01-10.62Q83.46-10.62 83.46-10.24L83.46-10.24L83.46-10.24Q83.46-9.86 80.83-6.91L80.83-6.91L80.83-6.91Q74.43 0.13 70.14 0.13L70.14 0.13L70.14 0.13Q68.03 0.13 66.56-0.86L66.56-0.86L66.56-0.86Q65.09-1.86 65.09-3.94L65.09-3.94L65.09-3.94Q65.09-6.02 66.18-8.77L66.18-8.77L66.18-8.77Q68.03-13.12 72.13-19.71L72.13-19.71L72.13-19.71Q79.62-31.87 82.75-31.87L82.75-31.87L82.75-31.87Q83.39-31.87 84.06-31.39L84.06-31.39L84.06-31.39Q84.74-30.91 84.80-30.34L84.80-30.34L84.80-30.34Q83.33-28.35 79.14-22.72L79.14-22.72L79.14-22.72Q74.94-17.09 73.34-14.62L73.34-14.62L73.34-14.62Q71.74-12.16 70.94-10.94L70.94-10.94L70.94-10.94Q70.14-9.73 69.76-9.06L69.76-9.06L69.76-9.06Q69.38-8.38 68.86-7.30L68.86-7.30L68.86-7.30Q67.78-5.12 67.78-3.20ZM94.72-26.11L94.72-26.11Q95.68-26.11 96.54-25.50L96.54-25.50L96.54-25.50Q97.41-24.90 97.41-24.06L97.41-24.06L97.41-24.06Q97.41-23.23 96.61-22.62L96.61-22.62L96.61-22.62Q95.81-22.02 94.85-22.02L94.85-22.02L94.85-22.02Q93.89-22.02 93.09-22.72L93.09-22.72L93.09-22.72Q92.29-23.42 92.29-24.32L92.29-24.32L92.29-24.32Q92.29-26.11 94.72-26.11L94.72-26.11ZM83.14 0.70L83.14 0.70L83.14 0.70Q79.87 0.70 79.87-3.52L79.87-3.52L79.87-3.52Q79.87-6.98 83.65-13.09L83.65-13.09L83.65-13.09Q87.42-19.20 89.73-19.26L89.73-19.26L89.73-19.26Q90.37-19.26 91.17-18.75L91.17-18.75L91.17-18.75Q91.97-18.24 91.97-17.73L91.97-17.73L91.97-17.73Q91.65-17.28 91.20-16.74L91.20-16.74L91.20-16.74Q90.75-16.19 90.24-15.55L90.24-15.55L90.24-15.55Q89.73-14.91 88.83-13.73L88.83-13.73L88.83-13.73Q87.94-12.54 87.10-11.46L87.10-11.46L87.10-11.46Q82.30-5.25 82.30-2.91L82.30-2.91L82.30-2.91Q82.30-0.58 83.90-0.58L83.90-0.58L83.90-0.58Q85.25-0.58 87.55-2.05L87.55-2.05L87.55-2.05Q92.93-5.38 96.06-9.34L96.06-9.34L96.06-9.34Q97.22-10.82 97.63-10.82L97.63-10.82L97.63-10.82Q98.05-10.82 98.05-10.30L98.05-10.30L98.05-10.30Q98.05-9.79 96.58-8.26L96.58-8.26L96.58-8.26Q95.10-6.72 94.24-5.82L94.24-5.82L94.24-5.82Q93.38-4.93 93.06-4.64L93.06-4.64L93.06-4.64Q92.74-4.35 91.87-3.55L91.87-3.55L91.87-3.55Q91.01-2.75 90.56-2.43L90.56-2.43L90.56-2.43Q90.11-2.11 89.28-1.47L89.28-1.47L89.28-1.47Q88.45-0.83 87.81-0.54L87.81-0.54L87.81-0.54Q87.17-0.26 86.34 0.13L86.34 0.13L86.34 0.13Q84.99 0.70 83.14 0.70ZM126.08 2.94L126.08 2.94L126.08 2.94Q126.08 1.15 133.44-10.94L133.44-10.94L133.44-10.94Q128.19-10.94 126.46-10.50L126.46-10.50L126.46-10.50Q123.58-9.79 122.18-7.62L122.18-7.62L122.18-7.62Q121.66-6.91 121.31-6.85L121.31-6.85L121.31-6.85Q120.96-6.78 120.96-7.14L120.96-7.14L120.96-7.14Q120.96-7.49 121.22-7.74L121.22-7.74L121.22-7.74Q123.65-11.01 126.02-12.22L126.02-12.22L126.02-12.22Q128.38-13.44 133.50-13.44L133.50-13.44L133.50-13.44Q134.27-13.44 135.04-13.44L135.04-13.44L135.04-13.44Q138.94-19.39 145.98-31.10L145.98-31.10L145.98-31.10Q148.61-36.03 148.61-39.10L148.61-39.10L148.61-39.10Q148.61-44.03 142.59-44.10L142.59-44.10L142.59-44.10Q142.21-44.10 141.89-44.10L141.89-44.10L141.89-44.10Q133.70-44.10 126.98-40L126.98-40L126.98-40Q120.26-35.90 116.35-29.82L116.35-29.82L116.35-29.82Q112.45-23.74 112.45-18.88L112.45-18.88L112.45-18.88Q112.45-12.93 118.02-12.93L118.02-12.93L118.02-12.93Q122.43-12.93 125.57-16.83L125.57-16.83L125.57-16.83Q128.70-20.74 128.70-24.26L128.70-24.26L128.70-24.26Q128.70-26.24 127.68-27.52L127.68-27.52L127.68-27.52Q127.55-27.65 127.55-27.84L127.55-27.84L127.55-27.84Q127.55-28.29 128.06-28.29L128.06-28.29L128.06-28.29Q128.32-28.29 128.45-28.10L128.45-28.10L128.45-28.10Q129.73-26.43 129.73-24.13L129.73-24.13L129.73-24.13Q129.73-20.22 126.53-16.16L126.53-16.16L126.53-16.16Q123.33-12.10 119.81-11.65L119.81-11.65L119.81-11.65Q118.72-11.46 117.70-11.46L117.70-11.46L117.70-11.46Q113.60-11.46 111.36-14.08L111.36-14.08L111.36-14.08Q109.18-16.45 109.18-20.48L109.18-20.48L109.18-20.48Q109.18-22.14 109.57-23.87L109.57-23.87L109.57-23.87Q111.49-32.51 120.67-38.98L120.67-38.98L120.67-38.98Q129.86-45.44 141.31-45.44L141.31-45.44L141.31-45.44Q145.73-45.44 148.90-43.55L148.90-43.55L148.90-43.55Q152.06-41.66 152.06-38.27L152.06-38.27L152.06-38.27Q152.06-34.88 149.70-31.10L149.70-31.10L138.11-13.31L138.11-13.31Q140.16-13.25 145.44-12.70L145.44-12.70L145.44-12.70Q150.72-12.16 153.38-12.16L153.38-12.16L153.38-12.16Q156.03-12.16 156.93-12.22L156.93-12.22L159.36-16.26L159.36-16.26Q165.57-26.69 173.73-35.74L173.73-35.74L173.73-35.74Q181.89-44.80 187.97-46.98L187.97-46.98L187.97-46.98Q188.16-47.04 188.35-47.04L188.35-47.04L188.35-47.04Q188.80-47.04 188.80-46.53L188.80-46.53L188.80-46.53Q188.80-46.34 188.61-46.21L188.61-46.21L188.61-46.21Q184.51-43.90 176.86-35.04L176.86-35.04L176.86-35.04Q169.22-26.18 163.65-16.83L163.65-16.83L161.15-12.61L161.15-12.61Q164.10-12.99 165.38-14.08L165.38-14.08L165.38-14.08Q165.63-14.27 165.82-13.86L165.82-13.86L165.82-13.86Q166.02-13.44 165.76-13.25L165.76-13.25L165.76-13.25Q163.84-11.78 160.32-11.14L160.32-11.14L160.32-11.14Q155.84-2.82 155.84 0.58L155.84 0.58L155.84 0.58Q155.84 2.75 157.70 2.75L157.70 2.75L157.70 2.75Q158.98 2.75 160.67 1.89L160.67 1.89L160.67 1.89Q162.37 1.02 162.94 0.42L162.94 0.42L162.94 0.42Q163.52-0.19 163.65-0.19L163.65-0.19L163.65-0.19Q163.78-0.19 163.71 0.22L163.71 0.22L163.71 0.22Q163.65 0.64 163.46 0.90L163.46 0.90L163.46 0.90Q162.37 1.92 160.19 3.07L160.19 3.07L160.19 3.07Q158.02 4.22 156.67 4.22L156.67 4.22L156.67 4.22Q155.33 4.22 154.69 3.78L154.69 3.78L154.69 3.78Q152.64 2.43 152.64-0.90L152.64-0.90L152.64-0.90Q152.64-4.22 156.03-10.62L156.03-10.62L156.03-10.62Q153.66-10.43 151.62-10.43L151.62-10.43L151.62-10.43Q150.91-10.43 136.58-10.88L136.58-10.88L136.58-10.88Q132.03-3.71 129.28 2.18L129.28 2.18L129.28 2.18Q128.45 3.90 127.26 3.90L127.26 3.90L127.26 3.90Q126.08 3.90 126.08 2.94ZM190.08-19.14L190.08-19.14L190.98-19.33L190.98-19.33Q191.68-19.33 192.32-18.75L192.32-18.75L192.32-18.75Q192.96-18.18 192.96-17.86L192.96-17.86L192.96-17.86Q192.96-17.54 188.99-11.68L188.99-11.68L188.99-11.68Q185.02-5.82 185.02-3.52L185.02-3.52L185.02-3.52Q185.02-3.33 185.09-3.14L185.09-3.14L185.09-3.14Q185.41-1.66 186.50-1.66L186.50-1.66L186.50-1.66Q189.82-1.66 198.66-12.67L198.66-12.67L198.66-12.67Q198.85-12.93 199.10-12.93L199.10-12.93L199.10-12.93Q199.36-12.93 199.36-12.45L199.36-12.45L199.36-12.45Q199.36-11.97 198.78-11.20L198.78-11.20L198.78-11.20Q190.59-0.26 186.30-0.26L186.30-0.26L186.30-0.26Q185.73-0.26 185.22-0.45L185.22-0.45L185.22-0.45Q182.40-1.54 182.40-4.67L182.40-4.67L182.40-4.67Q182.40-5.76 182.66-6.85L182.66-6.85L178.69-3.01L178.69-3.01Q174.91 0.32 173.22 0.32L173.22 0.32L173.22 0.32Q171.52 0.32 169.98-0.77L169.98-0.77L169.98-0.77Q168.26-2.05 168.26-4.16L168.26-4.16L168.26-4.16Q168.26-8.83 174.78-15.33L174.78-15.33L174.78-15.33Q181.31-21.82 186.75-21.82L186.75-21.82L186.75-21.82Q188.86-21.82 189.57-20.35L189.57-20.35L189.57-20.35Q189.76-19.84 189.89-19.49L189.89-19.49L189.89-19.49Q190.02-19.14 190.08-19.14ZM170.94-3.39L170.94-3.39L170.94-3.39Q170.94-1.09 172.54-1.09L172.54-1.09L172.54-1.09Q176.26-1.09 182.66-9.22L182.66-9.22L189.44-18.56L189.44-18.56Q188.93-19.46 187.78-19.46L187.78-19.46L187.78-19.46Q183.87-19.46 177.41-13.41L177.41-13.41L177.41-13.41Q170.94-7.36 170.94-3.39ZM211.90-20.61L211.90-20.61L221.12-20.74L221.12-20.74Q221.31-20.61 221.31-20.54L221.31-20.54L221.31-20.54Q221.31-19.97 213.34-18.94L213.34-18.94L213.34-18.94Q205.38-17.92 204.74-17.73L204.74-17.73L204.74-17.73Q203.52-16.64 200.26-11.23L200.26-11.23L200.26-11.23Q196.99-5.82 196.99-3.33L196.99-3.33L196.99-3.33Q196.99-0.96 200.26-0.96L200.26-0.96L200.26-0.96Q201.79-0.96 204.29-1.92L204.29-1.92L204.29-1.92Q206.78-2.88 208.13-3.71L208.13-3.71L208.13-3.71Q211.71-5.95 215.81-10.30L215.81-10.30L215.81-10.30Q216.70-11.20 217.02-11.20L217.02-11.20L217.02-11.20Q217.22-11.20 217.22-10.82L217.22-10.82L217.22-10.82Q217.22-10.43 216.26-9.28L216.26-9.28L216.26-9.28Q212.93-5.18 208.77-2.69L208.77-2.69L208.77-2.69Q203.78 0.38 199.23 0.38L199.23 0.38L199.23 0.38Q197.25 0.38 196-0.48L196-0.48L196-0.48Q194.75-1.34 194.75-3.97L194.75-3.97L194.75-3.97Q194.75-6.59 197.06-11.17L197.06-11.17L197.06-11.17Q199.36-15.74 200.58-17.98L200.58-17.98L200.58-17.98Q199.68-17.79 199.04-17.79L199.04-17.79L199.04-17.79Q197.18-17.79 197.18-19.26L197.18-19.26L197.18-19.26Q197.18-20.35 198.72-20.80L198.72-20.80L198.72-20.80Q198.91-20.80 199.30-20.86L199.30-20.86L203.01-20.86L203.01-20.86Q204.16-22.34 205.63-24.26L205.63-24.26L205.63-24.26Q207.42-26.56 208.06-26.56L208.06-26.56L208.06-26.56Q208.70-26.56 209.66-26.05L209.66-26.05L209.66-26.05Q210.62-25.54 210.62-24.83L210.62-24.83L210.62-24.83Q210.62-24.13 207.55-20.67L207.55-20.67L207.55-20.67Q209.22-20.61 211.90-20.61ZM217.47 0.83L217.47 0.83L217.47 0.83Q216.77 0.83 216.19 0.64L216.19 0.64L216.19 0.64Q212.10-0.51 212.10-3.97L212.10-3.97L212.10-3.97Q212.10-8.45 217.73-14.34L217.73-14.34L217.73-14.34Q223.36-20.22 227.84-20.22L227.84-20.22L227.84-20.22Q229.31-20.22 230.24-19.42L230.24-19.42L230.24-19.42Q231.17-18.62 231.17-17.47L231.17-17.47L231.17-17.47Q231.17-13.89 225.76-10.62L225.76-10.62L225.76-10.62Q220.35-7.36 216.96-7.36L216.96-7.36L216.96-7.36Q216.45-7.36 216.06-7.49L216.06-7.49L216.06-7.49Q215.10-5.76 215.10-3.84L215.10-3.84L215.10-3.84Q215.10-0.51 218.27-0.51L218.27-0.51L218.27-0.51Q221.44-0.51 226.50-4.80L226.50-4.80L226.50-4.80Q230.40-7.94 233.15-11.46L233.15-11.46L233.15-11.46Q233.73-12.22 234.14-12.22L234.14-12.22L234.14-12.22Q234.56-12.22 234.56-11.84L234.56-11.84L234.56-11.84Q234.56-11.46 234.05-10.75L234.05-10.75L234.05-10.75Q230.59-6.21 225.73-2.69L225.73-2.69L225.73-2.69Q220.86 0.83 217.47 0.83ZM229.57-17.60L229.57-17.60L229.57-17.60Q229.57-18.37 227.94-18.37L227.94-18.37L227.94-18.37Q226.30-18.37 223.30-15.87L223.30-15.87L223.30-15.87Q219.26-12.54 217.02-8.90L217.02-8.90L217.02-8.90Q217.41-8.77 217.86-8.77L217.86-8.77L217.86-8.77Q220.29-8.77 224.35-11.36L224.35-11.36L224.35-11.36Q228.42-13.95 229.44-17.02L229.44-17.02L229.44-17.02Q229.57-17.34 229.57-17.60ZM261.25-0.77L261.25-0.77L261.25-0.77Q256.90-0.77 256.90-4.80L256.90-4.80L256.90-4.80Q256.90-7.10 258.94-11.10L258.94-11.10L258.94-11.10Q260.99-15.10 263.23-17.86L263.23-17.86L263.23-17.86Q259.26-15.94 254.08-10.91L254.08-10.91L254.08-10.91Q248.90-5.89 246.85-0.38L246.85-0.38L246.85-0.38Q246.53 0.13 245.76 0.13L245.76 0.13L245.76 0.13Q244.22 0.13 244.22-1.60L244.22-1.60L244.22-1.60Q244.86-5.12 247.10-9.66L247.10-9.66L247.10-9.66Q247.81-11.14 251.26-18.24L251.26-18.24L251.26-18.24Q246.27-14.98 242.78-11.23L242.78-11.23L242.78-11.23Q239.30-7.49 236.32-3.71L236.32-3.71L236.32-3.71Q233.34 0.06 232.96 0.06L232.96 0.06L232.96 0.06Q232.13 0.06 231.52-0.70L231.52-0.70L231.52-0.70Q230.91-1.47 230.91-2.24L230.91-2.24L230.91-2.24Q230.91-3.39 234.24-10.69L234.24-10.69L230.40-6.66L230.40-6.66Q228.99-5.25 228.64-5.25L228.64-5.25L228.64-5.25Q228.29-5.25 228.29-5.66L228.29-5.66L228.29-5.66Q228.29-6.08 228.80-6.59L228.80-6.59L228.80-6.59Q231.17-8.96 233.02-11.33L233.02-11.33L233.02-11.33Q234.88-13.70 239.17-19.78L239.17-19.78L239.17-19.78Q239.87-20.74 241.15-20.74L241.15-20.74L241.15-20.74Q242.43-20.74 242.43-19.52L242.43-19.52L242.43-19.52Q242.43-19.07 239.04-13.28L239.04-13.28L239.04-13.28Q235.65-7.49 235.26-6.02L235.26-6.02L235.26-6.02Q237.89-8.90 243.14-13.76L243.14-13.76L243.14-13.76Q251.01-21.06 253.50-21.06L253.50-21.06L253.50-21.06Q254.27-21.06 254.91-20.61L254.91-20.61L254.91-20.61Q255.55-20.16 255.55-19.62L255.55-19.62L255.55-19.62Q255.55-19.07 253.06-14.78L253.06-14.78L253.06-14.78Q250.62-10.37 250.37-9.54L250.37-9.54L250.37-9.54Q257.47-15.49 257.47-15.55L257.47-15.55L257.47-15.55Q263.49-20.22 266.11-20.22L266.11-20.22L266.11-20.22Q266.88-20.22 267.55-19.74L267.55-19.74L267.55-19.74Q268.22-19.26 268.22-18.62L268.22-18.62L268.22-18.62Q268.22-18.50 264.06-13.22L264.06-13.22L264.06-13.22Q259.90-7.94 259.39-4.54L259.39-4.54L259.39-4.54Q259.26-3.39 259.84-2.82L259.84-2.82L259.84-2.82Q260.42-2.24 261.92-2.24L261.92-2.24L261.92-2.24Q263.42-2.24 266.34-4.32L266.34-4.32L266.34-4.32Q269.25-6.40 272.26-9.92L272.26-9.92L272.26-9.92Q273.41-11.20 273.82-11.20L273.82-11.20L273.82-11.20Q274.24-11.20 274.24-10.88L274.24-10.88L274.24-10.88Q274.24-10.43 273.66-9.86L273.66-9.86L273.66-9.86Q270.53-6.08 266.91-3.42L266.91-3.42L266.91-3.42Q263.30-0.77 261.25-0.77Z" fill="#ccc"></path></g></g><style>text {
  font-size: 64px;
  font-family: Arial Black;
  dominant-baseline: central;
  text-anchor: middle;
}</style></svg>